<svg version="1.2" xmlns="http://www.w3.org/2000/svg" viewBox="0 0 1080 1080">
	
	<path id="underdorsal" d="m803.58 650.82c0 0 44.25 68.74 13.28 91.81-30.98 23.08-150.45 95.29-169.25 86.29-18.81-9.01-1.11-53.1-1.11-53.1z" style="fill:#de7a34;stroke:#000000;stroke-linecap:round;stroke-linejoin:round;stroke-width:15"/>
	<path id="underfin2" d="m381.26 819.2c0 0 23.51 104.69 75.06 102.7 48.52-1.87 58.65-29.4 21.74-102.67-38.07-75.55-96.8-0.03-96.8-0.03z" style="fill:#ed731e;stroke:#000000;stroke-linecap:round;stroke-linejoin:round;stroke-width:15"/>
	<path id="underfin1" d="m461.29 819.42c0 0 45.23 89.22 96.55 93.65 50.01 4.32 75.75-30.18-3.65-107.44-83.77-81.52-92.9 13.79-92.9 13.79z" style="fill:#ed731e;stroke:#000000;stroke-linecap:round;stroke-linejoin:round;stroke-width:15"/>
	<path id="fin2" d="m212.86 743.74c0 0-38.14 79.69 17.7 122.64 43.14 33.18 77.43 24.33 77.43 24.33 0 0 29.87-7.59 7.75-94.03-22.13-86.44-102.88-52.94-102.88-52.94z" style="fill:#ed731e;stroke:#000000;stroke-linecap:round;stroke-linejoin:round;stroke-width:15"/>
	<path id="dorsal" d="m780.35 452.8c0 0 28.77-60.84 21.02-90.87-7.74-30.02-46.46-73.8-89.6-76.17-43.15-2.37-45.36-31.93-73.01-87.39-27.66-55.47-205.76-77.59-246.69 96.08-41.35 175.45 388.28 158.35 388.28 158.35z" style="fill:#ed731e;stroke:#000000;stroke-linecap:round;stroke-linejoin:round;stroke-width:15"/>
	<path id="stripe4" d="m656.46 244.04c0 0 18.8 35.4 35.39 40.93 16.57 5.52-2.21 40.61-2.21 40.61 0 0-50.88 111.36-60.84 118.32-9.96 6.95-54.57-5.16-54.57-5.16 0 0 91.44-161.51 82.23-194.7z" style="fill:#f6f4f3;stroke:#000000;stroke-linecap:round;stroke-linejoin:round;stroke-width:10"/>
	<path id="body" d="m413.08 261.42c0 0-125 5.53-209.07 142.71-84.08 137.17-86.29 268.97-9.96 347.35 76.33 78.39 299.89 129.45 481.21 40.93 127.22-62.1 106.2-127.06 140.49-131.64 34.3-4.58 59.74 25.44 59.74 25.44 0 0 64.16 60.69 81.86-44.4 17.7-105.09 15.49-196.6-13.27-216.67-28.77-20.06-82.97 7.75-91.82 33.04-8.85 25.28-61.95-20.87-61.95-20.87 0 0-120.58-222.19-377.23-175.89z" style="fill:#ed731e;stroke:#000000;stroke-linecap:round;stroke-linejoin:round;stroke-width:15"/>
	<path id="nose" fill-rule="evenodd" d="m356.11 632.25c-26.62 2-48.75-8.02-47.45-31.01 1.13-20.13 21.19-35.47 43.57-36.41 20.95-0.88 39.69 11.13 43.46 28.46 4.24 19.47-12.95 36.96-39.58 38.96z" style="fill:#f54238;stroke:#000000;stroke-linecap:round;stroke-linejoin:round;stroke-width:10"/>
	<path id="stripe3" d="m819.94 461.88c5.92-0.79 29.44 6.22 29.76 7.7 21.73 100.85 18.21 125.95-1.22 193.92-0.55 1.9-29.41-3.66-29.41-3.66 0 0 17.82-39.05 14.42-98.09-2.54-44.14-18.44-99.22-13.55-99.87z" style="fill:#f6f4f3;stroke:#000000;stroke-linecap:round;stroke-linejoin:round;stroke-width:10"/>
	<path id="stripe2" d="m671.57 315.58c0 0 73.38 53.94 82.23 75.27 8.85 21.34 33.83 102.81 33.19 180.32-0.74 88.81-19.91 140.17-35.4 164.83-15.49 24.65-47.94 40.51-47.94 40.51l-7.37 4.84c0 0 50.89-107.72 46.83-209.87-5.9-148.51-22.12-178.47-71.54-255.9z" style="fill:#f6f4f3;stroke:#000000;stroke-linecap:round;stroke-linejoin:round;stroke-width:10"/>
	<path id="stripe1" d="m467.01 836.9c44.25 1.48 99.56-3.87 111.73-13.83 16.87-13.8 87.67-83.07 102.42-153.13 10.17-48.28 32.76-135.6-20.28-266.92-51.26-126.9-147.5-145.71-147.5-145.71-61.58-4.42-76.17-3.81-124.63 10.7-7.72 2.31-24.34 5.53-24.34 5.53 0 0 98.09 4.42 149.34 29.92 101.77 50.62 182.77 265.4 102.51 408.52-81.55 145.42-174.41 124.08-149.25 124.92z" style="fill:#f6f4f3;stroke:#000000;stroke-linecap:round;stroke-linejoin:round;stroke-width:10"/>
	<path id="fin1" fill-rule="evenodd" d="m674.9 698.8c1.86-8.58 16.61 95.97-6.06 167.4-8.27 26.07 73.3 44.89 106.49 15.06 32.64-29.34 42.64-89.22 14.67-131.95-25.66-39.2-47.03-55.31-56.47-71.35" style="fill:#ed731e;stroke:#000000;stroke-linecap:round;stroke-linejoin:round;stroke-width:15"/>
	<path id="chin" fill-rule="evenodd" d="m302.46 722.72c0 0 57.53-30.82 97.35 6.64" style="fill:none;stroke:#000000;stroke-linecap:round;stroke-linejoin:round;stroke-width:10"/>
	<path id="mouth-dt1" fill-rule="evenodd" d="m489.37 766.77c-1.38 2.78 54.86 27.46 46.47-26.54" style="fill:none;stroke:#000000;stroke-linecap:round;stroke-linejoin:round;stroke-width:10"/>
	<path id="mouth" fill-rule="evenodd" d="m216.14 728.21c0 0 147.12-144.91 292.04 16.44" style="fill:none;stroke:#000000;stroke-linecap:round;stroke-linejoin:round;stroke-width:15"/>
	<path id="tears" d="m471 541.67c0 0 47.6 19.27 72.45 40.61 12.38 10.64 12.35 32.9 8.89 55.94-2.57 17.06 16.99 22.91 20.16-5.29 3.16-28.07-0.5-58.98-0.5-58.98 1.15-6.64-2-22.02 13.2-8.31 2.07 1.86 4.6 7.79 11.4 8.22 8.9 0.57 7.14-21.45-7.6-36.93-20-21-36.65-34.26-36.65-34.26z" style="fill:#b2e4e8;stroke:#000000;stroke-linecap:round;stroke-linejoin:round;stroke-width:10"/>
	<path id="eyeline2" fill-rule="evenodd" d="m379.9 509.22c0 0 34.29 107.46 138.28 105.09" style="fill:none;stroke:#000000;stroke-linecap:round;stroke-linejoin:round;stroke-width:10"/>
	<path id="eyeline1" fill-rule="evenodd" d="m322.37 512.38c0 0-6.63 94.03-131.64 102.88" style="fill:none;stroke:#000000;stroke-linecap:round;stroke-linejoin:round;stroke-width:10"/>
	<path id="eye2" fill-rule="evenodd" d="m482.78 581.12c-59.34 0-107.31-47.96-107.31-107.3 0-59.34 47.97-107.31 107.31-107.31 59.34 0 107.3 47.97 107.3 107.31 0 59.34-47.96 107.3-107.3 107.3z" style="fill:#ffffff;stroke:#000000;stroke-linecap:round;stroke-linejoin:round;stroke-width:15"/>
	<path id="eye1" fill-rule="evenodd" d="m219.49 585.55c-59.34 0-107.3-47.97-107.3-107.31 0-59.34 47.96-107.3 107.3-107.3 59.34 0 107.31 47.96 107.31 107.3 0 59.34-47.97 107.31-107.31 107.31z" style="fill:#ffffff;stroke:#000000;stroke-linecap:round;stroke-linejoin:round;stroke-width:15"/>
</svg>