<svg version="1.2" xmlns="http://www.w3.org/2000/svg" viewBox="0 0 200 200">
	
	<path id="Layer 2" fill-rule="evenodd" d="m98.94 195.64c-52.8 0-95.48-42.61-95.48-95.32 0-52.71 42.68-95.32 95.48-95.32 52.8 0 95.48 42.61 95.48 95.32 0 52.71-42.68 95.32-95.48 95.32z" style="fill:none;stroke:#9de0e0;stroke-miterlimit:6;stroke-width:5"/>
	<path id="Layer 4" fill-rule="evenodd" d="m101.1 5.55c0 0 73.35-6.23 95.9 33.85" style="fill:none;stroke:#9de0e0;stroke-miterlimit:6;stroke-width:5"/>
	<path id="Layer 4 copy" fill-rule="evenodd" d="m98.94 195.39c0 0-73.25 6.82-96.47-33.07" style="fill:none;stroke:#9de0e0;stroke-miterlimit:6;stroke-width:5"/>
	<path id="Layer 3" fill-rule="evenodd" d="m2 100c7.38-8.32 77.1-105.7 121.81-66.67 15.97 13.95-20.76 40.06-38.38 16.78-8.26-10.9 25.04-17.09 22.01-4.3" style="fill:none;stroke:#9de0e0;stroke-miterlimit:6;stroke-width:5"/>
	<path id="Layer 3 copy" fill-rule="evenodd" d="m194.78 102.18c-7.37 8.32-77.09 105.7-121.8 66.67-15.98-13.95 20.75-40.06 38.38-16.77 8.25 10.9-25.06 17.08-22.01 4.29" style="fill:none;stroke:#9de0e0;stroke-miterlimit:6;stroke-width:5"/>
</svg>